<svg xmlns="http://www.w3.org/2000/svg" xmlns:xlink="http://www.w3.org/1999/xlink" width="900" zoomAndPan="magnify" viewBox="0 0 375 374.999991" height="900" preserveAspectRatio="xMidYMid meet" version="1.0"><defs><clipPath id="c4d8a51849"><path d="M 63 53.066406 L 312 53.066406 L 312 135 L 63 135 Z M 63 53.066406 " clip-rule="nonzero"/></clipPath><clipPath id="e82802ed59"><path d="M 32.195312 122 L 342.695312 122 L 342.695312 299.066406 L 32.195312 299.066406 Z M 32.195312 122 " clip-rule="nonzero"/></clipPath></defs><g clip-path="url(#c4d8a51849)"><path fill="#0092b1" d="M 75.390625 134.757812 C 76.675781 132.164062 78.050781 129.617188 79.511719 127.121094 C 80.976562 124.621094 82.523438 122.175781 84.15625 119.785156 C 85.789062 117.394531 87.5 115.0625 89.292969 112.792969 C 91.089844 110.519531 92.960938 108.3125 94.90625 106.171875 C 96.855469 104.027344 98.875 101.957031 100.964844 99.953125 C 103.058594 97.953125 105.214844 96.027344 107.441406 94.171875 C 109.667969 92.320312 111.953125 90.550781 114.304688 88.855469 C 116.652344 87.164062 119.054688 85.550781 121.515625 84.027344 C 123.976562 82.5 126.488281 81.0625 129.046875 79.710938 C 131.609375 78.355469 134.210938 77.09375 136.859375 75.925781 C 139.507812 74.753906 142.195312 73.675781 144.917969 72.691406 C 147.640625 71.707031 150.394531 70.816406 153.179688 70.023438 C 155.960938 69.230469 158.769531 68.535156 161.605469 67.933594 C 164.4375 67.335938 167.289062 66.835938 170.15625 66.4375 C 173.023438 66.035156 175.902344 65.734375 178.789062 65.535156 C 181.679688 65.332031 184.570312 65.234375 187.464844 65.234375 C 190.363281 65.234375 193.253906 65.332031 196.140625 65.535156 C 199.03125 65.734375 201.910156 66.035156 204.777344 66.4375 C 207.644531 66.835938 210.496094 67.335938 213.328125 67.933594 C 216.160156 68.535156 218.96875 69.230469 221.753906 70.023438 C 224.539062 70.816406 227.292969 71.707031 230.015625 72.691406 C 232.738281 73.675781 235.425781 74.753906 238.074219 75.925781 C 240.71875 77.09375 243.324219 78.355469 245.886719 79.710938 C 248.445312 81.0625 250.957031 82.5 253.417969 84.027344 C 255.875 85.550781 258.28125 87.164062 260.628906 88.855469 C 262.976562 90.550781 265.265625 92.320312 267.492188 94.171875 C 269.714844 96.027344 271.875 97.953125 273.964844 99.953125 C 276.058594 101.957031 278.078125 104.027344 280.023438 106.171875 C 281.972656 108.3125 283.84375 110.519531 285.636719 112.792969 C 287.433594 115.0625 289.144531 117.394531 290.777344 119.785156 C 292.410156 122.175781 293.957031 124.621094 295.421875 127.121094 C 296.882812 129.617188 298.257812 132.164062 299.542969 134.757812 C 302.527344 133.15625 310.28125 131.269531 311.273438 131.179688 C 309.886719 128.273438 308.402344 125.421875 306.820312 122.621094 C 305.234375 119.820312 303.550781 117.078125 301.773438 114.394531 C 299.996094 111.714844 298.125 109.097656 296.164062 106.546875 C 294.203125 103.996094 292.152344 101.519531 290.015625 99.113281 C 287.878906 96.707031 285.660156 94.378906 283.359375 92.128906 C 281.058594 89.878906 278.679688 87.710938 276.226562 85.628906 C 273.773438 83.546875 271.25 81.554688 268.65625 79.648438 C 266.0625 77.742188 263.402344 75.933594 260.683594 74.214844 C 257.960938 72.496094 255.183594 70.875 252.347656 69.355469 C 249.511719 67.832031 246.625 66.410156 243.691406 65.09375 C 240.753906 63.773438 237.777344 62.558594 234.753906 61.449219 C 231.734375 60.339844 228.675781 59.339844 225.585938 58.445312 C 222.492188 57.550781 219.375 56.765625 216.226562 56.09375 C 213.078125 55.417969 209.914062 54.855469 206.726562 54.402344 C 203.539062 53.953125 200.339844 53.613281 197.128906 53.386719 C 193.917969 53.160156 190.703125 53.046875 187.484375 53.046875 C 184.265625 53.046875 181.054688 53.160156 177.84375 53.386719 C 174.632812 53.613281 171.433594 53.953125 168.246094 54.402344 C 165.058594 54.855469 161.894531 55.417969 158.746094 56.09375 C 155.597656 56.765625 152.480469 57.550781 149.386719 58.445312 C 146.296875 59.339844 143.238281 60.339844 140.21875 61.449219 C 137.195312 62.558594 134.21875 63.773438 131.28125 65.09375 C 128.347656 66.410156 125.460938 67.832031 122.625 69.355469 C 119.789062 70.875 117.011719 72.496094 114.289062 74.214844 C 111.566406 75.933594 108.910156 77.742188 106.316406 79.648438 C 103.722656 81.554688 101.199219 83.546875 98.746094 85.628906 C 96.292969 87.710938 93.914062 89.878906 91.613281 92.128906 C 89.3125 94.378906 87.09375 96.707031 84.957031 99.113281 C 82.820312 101.519531 80.769531 103.996094 78.808594 106.546875 C 76.847656 109.097656 74.976562 111.714844 73.199219 114.394531 C 71.417969 117.078125 69.738281 119.820312 68.152344 122.621094 C 66.570312 125.421875 65.085938 128.273438 63.699219 131.179688 C 64.628906 131.269531 72.414062 133.15625 75.390625 134.757812 Z M 75.390625 134.757812 " fill-opacity="1" fill-rule="nonzero"/></g><path fill="#2c3e50" d="M 338.53125 149.292969 L 337.828125 145.523438 C 337.746094 145.09375 337.628906 144.671875 337.476562 144.261719 C 337.320312 143.855469 337.128906 143.460938 336.902344 143.085938 C 336.679688 142.707031 336.421875 142.355469 336.132812 142.027344 C 335.84375 141.695312 335.527344 141.394531 335.183594 141.121094 C 334.839844 140.847656 334.476562 140.605469 334.089844 140.398438 C 333.703125 140.191406 333.304688 140.019531 332.886719 139.882812 C 332.46875 139.746094 332.042969 139.648438 331.609375 139.585938 C 331.175781 139.527344 330.738281 139.503906 330.300781 139.523438 C 322.65625 139.832031 314.546875 140.402344 310.183594 141.074219 C 300.945312 142.488281 288.820312 155.511719 288.820312 155.511719 L 265.28125 122.65625 C 257.558594 111.878906 248.796875 102.503906 234.464844 102.503906 L 140.507812 102.503906 C 126.148438 102.503906 117.421875 111.878906 109.660156 122.65625 L 86.109375 155.511719 C 86.109375 155.511719 73.984375 142.488281 64.75 141.066406 C 60.398438 140.394531 52.277344 139.820312 44.640625 139.515625 C 44.203125 139.496094 43.765625 139.515625 43.332031 139.574219 C 42.894531 139.636719 42.46875 139.734375 42.054688 139.867188 C 41.636719 140.003906 41.234375 140.175781 40.847656 140.386719 C 40.460938 140.59375 40.09375 140.835938 39.753906 141.109375 C 39.410156 141.382812 39.09375 141.683594 38.804688 142.011719 C 38.515625 142.34375 38.257812 142.695312 38.03125 143.074219 C 37.804688 143.449219 37.613281 143.84375 37.457031 144.253906 C 37.304688 144.664062 37.183594 145.082031 37.105469 145.515625 L 36.402344 149.28125 C 35.285156 155.34375 38.894531 157.636719 45.105469 159.347656 C 50.277344 160.773438 58.269531 162.808594 61.207031 162.503906 C 65.964844 162.007812 73.015625 158.832031 74.203125 158.4375 L 74.300781 158.546875 C 74.480469 158.742188 74.648438 158.945312 74.800781 159.160156 C 74.957031 159.375 75.097656 159.597656 75.226562 159.832031 C 75.351562 160.0625 75.46875 160.300781 75.566406 160.546875 C 75.664062 160.789062 75.75 161.039062 75.820312 161.296875 C 75.890625 161.550781 75.941406 161.808594 75.980469 162.070312 C 76.019531 162.332031 76.042969 162.597656 76.050781 162.859375 C 76.058594 163.125 76.050781 163.386719 76.023438 163.652344 C 76 163.914062 75.960938 164.175781 75.90625 164.433594 C 75.847656 164.691406 75.777344 164.949219 75.691406 165.199219 C 75.605469 165.449219 75.507812 165.691406 75.390625 165.929688 C 75.277344 166.167969 75.148438 166.398438 75.003906 166.621094 C 74.863281 166.84375 74.707031 167.058594 74.539062 167.261719 C 74.371094 167.464844 74.191406 167.660156 74 167.84375 C 73.808594 168.023438 73.609375 168.195312 73.394531 168.355469 C 73.183594 168.511719 72.964844 168.660156 72.734375 168.792969 C 72.507812 168.921875 72.269531 169.042969 72.027344 169.144531 C 67.390625 171.183594 61.148438 174.199219 59.625 176.363281 C 56.402344 179.585938 52.375 226.542969 51.101562 242.382812 C 51.035156 243.175781 51.074219 243.960938 51.210938 244.742188 C 51.351562 245.523438 51.585938 246.277344 51.914062 246.996094 C 52.246094 247.71875 52.664062 248.386719 53.164062 249.003906 C 53.667969 249.617188 54.238281 250.160156 54.878906 250.628906 L 63.511719 256.957031 L 63.511719 264.660156 C 63.511719 265 63.578125 265.324219 63.710938 265.640625 C 63.839844 265.953125 64.023438 266.230469 64.265625 266.472656 C 64.503906 266.710938 64.78125 266.898438 65.09375 267.027344 C 65.40625 267.160156 65.734375 267.226562 66.074219 267.230469 L 85.855469 267.398438 L 126.917969 219.59375 C 126.917969 217.0625 127.304688 202.84375 127.628906 199.511719 L 115.605469 199.511719 L 104.179688 206.035156 C 103.199219 206.589844 102.144531 206.84375 101.015625 206.796875 L 81.730469 205.898438 C 81.195312 205.875 80.667969 205.800781 80.148438 205.679688 C 79.628906 205.554688 79.121094 205.386719 78.632812 205.171875 C 78.144531 204.957031 77.679688 204.699219 77.234375 204.398438 C 76.792969 204.097656 76.382812 203.761719 76.003906 203.386719 C 75.625 203.007812 75.28125 202.601562 74.976562 202.160156 C 74.671875 201.722656 74.410156 201.257812 74.191406 200.769531 C 73.972656 200.285156 73.800781 199.78125 73.675781 199.261719 C 73.550781 198.742188 73.472656 198.214844 73.441406 197.683594 L 72.652344 183.117188 C 72.644531 182.976562 72.671875 182.839844 72.730469 182.707031 C 72.789062 182.578125 72.875 182.46875 72.984375 182.378906 C 73.097656 182.289062 73.222656 182.226562 73.359375 182.199219 C 73.5 182.167969 73.640625 182.171875 73.777344 182.207031 L 117.128906 193.804688 L 128.371094 193.804688 C 130.144531 185.085938 133.367188 178.511719 142.089844 168.097656 L 101.3125 155.117188 C 101.136719 155.0625 100.972656 154.992188 100.816406 154.898438 C 100.660156 154.804688 100.515625 154.695312 100.386719 154.570312 C 100.253906 154.445312 100.140625 154.304688 100.046875 154.148438 C 99.949219 153.996094 99.871094 153.832031 99.8125 153.660156 C 99.757812 153.488281 99.71875 153.3125 99.703125 153.128906 C 99.6875 152.949219 99.695312 152.769531 99.722656 152.589844 C 99.75 152.410156 99.800781 152.234375 99.871094 152.066406 C 99.941406 151.898438 100.027344 151.742188 100.136719 151.597656 C 104.4375 145.792969 112.667969 131.316406 122.558594 119.3125 C 123.632812 118 124.9375 116.980469 126.472656 116.253906 C 128.007812 115.527344 129.621094 115.164062 131.320312 115.160156 L 243.621094 115.160156 C 245.320312 115.164062 246.933594 115.527344 248.464844 116.257812 C 249.996094 116.984375 251.300781 118.003906 252.375 119.3125 C 262.265625 131.316406 270.496094 145.792969 274.796875 151.597656 C 274.90625 151.742188 274.992188 151.898438 275.0625 152.066406 C 275.132812 152.234375 275.179688 152.410156 275.210938 152.589844 C 275.238281 152.769531 275.242188 152.949219 275.226562 153.128906 C 275.214844 153.3125 275.175781 153.488281 275.117188 153.660156 C 275.0625 153.832031 274.984375 153.996094 274.886719 154.148438 C 274.789062 154.304688 274.675781 154.445312 274.546875 154.570312 C 274.417969 154.695312 274.273438 154.804688 274.117188 154.898438 C 273.960938 154.992188 273.792969 155.0625 273.621094 155.117188 L 239.300781 166.210938 C 240.777344 167.058594 242.132812 168.070312 243.367188 169.246094 C 244.601562 170.417969 245.679688 171.722656 246.601562 173.152344 C 247.523438 174.585938 248.261719 176.105469 248.816406 177.714844 C 249.375 179.324219 249.734375 180.976562 249.894531 182.671875 C 252.257812 183.699219 254.371094 185.101562 256.230469 186.882812 C 258.09375 188.667969 259.585938 190.714844 260.714844 193.035156 L 301.164062 182.21875 C 301.300781 182.179688 301.441406 182.175781 301.582031 182.207031 C 301.71875 182.238281 301.84375 182.296875 301.957031 182.386719 C 302.066406 182.476562 302.148438 182.585938 302.207031 182.71875 C 302.265625 182.847656 302.289062 182.984375 302.28125 183.128906 L 301.492188 197.691406 C 301.460938 198.226562 301.386719 198.753906 301.257812 199.273438 C 301.132812 199.792969 300.960938 200.292969 300.742188 200.78125 C 300.523438 201.269531 300.261719 201.734375 299.957031 202.171875 C 299.652344 202.613281 299.3125 203.019531 298.929688 203.398438 C 298.550781 203.773438 298.140625 204.113281 297.699219 204.414062 C 297.257812 204.714844 296.789062 204.972656 296.300781 205.183594 C 295.8125 205.398438 295.304688 205.566406 294.785156 205.691406 C 294.265625 205.8125 293.738281 205.882812 293.203125 205.90625 L 273.925781 206.808594 C 272.796875 206.855469 271.738281 206.601562 270.75 206.046875 L 262.839844 201.539062 C 262.917969 203.042969 262.871094 204.542969 262.691406 206.035156 C 264.886719 207.269531 266.761719 208.875 268.324219 210.847656 C 269.886719 212.824219 271.015625 215.019531 271.710938 217.4375 C 274.933594 228.183594 269.554688 240.179688 257.339844 249.640625 C 253.707031 252.308594 249.8125 254.511719 245.652344 256.246094 C 247.785156 256.636719 249.875 257.191406 251.921875 257.90625 L 261.464844 261.238281 L 261.464844 265.042969 C 261.464844 265.386719 261.53125 265.71875 261.664062 266.035156 C 261.792969 266.351562 261.980469 266.632812 262.222656 266.875 C 262.46875 267.117188 262.746094 267.300781 263.066406 267.433594 C 263.382812 267.5625 263.714844 267.625 264.054688 267.625 L 308.898438 267.238281 C 309.238281 267.238281 309.5625 267.171875 309.875 267.039062 C 310.1875 266.90625 310.464844 266.722656 310.703125 266.480469 C 310.941406 266.238281 311.128906 265.960938 311.257812 265.648438 C 311.386719 265.335938 311.449219 265.007812 311.449219 264.667969 L 311.449219 256.96875 L 320.085938 250.640625 C 320.726562 250.171875 321.296875 249.628906 321.800781 249.015625 C 322.300781 248.398438 322.71875 247.730469 323.050781 247.007812 C 323.378906 246.285156 323.613281 245.535156 323.75 244.753906 C 323.890625 243.972656 323.925781 243.183594 323.863281 242.394531 C 322.585938 226.574219 318.5625 179.597656 315.347656 176.375 C 313.785156 174.207031 307.574219 171.191406 302.945312 169.167969 C 302.699219 169.0625 302.464844 168.941406 302.234375 168.808594 C 302.003906 168.675781 301.785156 168.53125 301.574219 168.371094 C 301.359375 168.214844 301.160156 168.042969 300.96875 167.859375 C 300.777344 167.675781 300.597656 167.480469 300.429688 167.277344 C 300.261719 167.074219 300.105469 166.859375 299.960938 166.636719 C 299.820312 166.414062 299.691406 166.183594 299.574219 165.941406 C 299.460938 165.703125 299.359375 165.460938 299.273438 165.210938 C 299.1875 164.957031 299.117188 164.703125 299.0625 164.445312 C 299.003906 164.1875 298.964844 163.925781 298.941406 163.660156 C 298.917969 163.394531 298.910156 163.132812 298.914062 162.867188 C 298.921875 162.601562 298.945312 162.339844 298.984375 162.078125 C 299.023438 161.816406 299.078125 161.554688 299.148438 161.300781 C 299.21875 161.042969 299.300781 160.792969 299.402344 160.546875 C 299.5 160.304688 299.617188 160.0625 299.742188 159.832031 C 299.871094 159.601562 300.011719 159.378906 300.167969 159.164062 C 300.324219 158.945312 300.492188 158.742188 300.667969 158.546875 L 300.757812 158.449219 C 301.957031 158.84375 308.996094 162.019531 313.753906 162.511719 C 316.722656 162.820312 324.632812 160.78125 329.855469 159.359375 C 335.996094 157.648438 339.65625 155.351562 338.53125 149.292969 Z M 338.53125 149.292969 " fill-opacity="1" fill-rule="nonzero"/><g clip-path="url(#e82802ed59)"><path fill="#0092b1" d="M 184.144531 289.378906 L 185.625 286.855469 C 186.324219 285.664062 187.242188 284.679688 188.386719 283.902344 C 189.53125 283.128906 190.789062 282.640625 192.152344 282.4375 C 221.953125 278.066406 237.699219 263.394531 243.277344 248.621094 C 247.011719 248.148438 250.371094 246.769531 253.363281 244.488281 C 260.832031 238.722656 268.496094 229.273438 265.492188 219.246094 C 265.15625 218.066406 264.660156 216.953125 264.003906 215.917969 C 263.347656 214.878906 262.5625 213.953125 261.640625 213.140625 C 260.71875 212.328125 259.699219 211.664062 258.585938 211.144531 C 257.472656 210.625 256.308594 210.273438 255.09375 210.089844 C 256.214844 207.160156 256.632812 204.136719 256.351562 201.015625 C 256.269531 200.171875 256.117188 199.339844 255.898438 198.523438 C 255.675781 197.707031 255.390625 196.910156 255.035156 196.140625 C 254.683594 195.371094 254.269531 194.636719 253.792969 193.9375 C 253.316406 193.238281 252.785156 192.582031 252.199219 191.96875 C 251.613281 191.359375 250.980469 190.800781 250.300781 190.292969 C 249.621094 189.789062 248.902344 189.34375 248.148438 188.957031 C 247.394531 188.570312 246.613281 188.25 245.804688 187.996094 C 245 187.742188 244.175781 187.554688 243.335938 187.4375 C 243.574219 185.851562 243.59375 184.265625 243.394531 182.671875 C 242.355469 174.652344 235.046875 169.523438 227.570312 169.355469 C 227.851562 167.421875 227.816406 165.492188 227.472656 163.570312 C 225.496094 152.78125 211.28125 149.867188 203.09375 155.964844 C 202.570312 156.351562 194.023438 162.164062 188.050781 170.105469 C 188.625 165.027344 188.359375 159.988281 187.257812 154.996094 C 184.242188 141.421875 176.378906 127.558594 162.195312 123.457031 C 157.203125 122.011719 151.664062 122.597656 148.777344 127.410156 C 145.207031 133.34375 149.410156 139.484375 151.566406 145.082031 C 154.800781 153.453125 154.304688 161.226562 149.476562 168.808594 C 146.074219 174.109375 141.566406 178.628906 138.46875 184.136719 C 133.949219 192.203125 133.800781 201.933594 133.4375 210.988281 C 133.289062 214.667969 133.4375 221.996094 133.4375 221.996094 L 75.441406 289.378906 L 32.367188 289.378906 L 32.367188 299.027344 L 342.566406 299.027344 L 342.566406 289.378906 Z M 259.25 221.765625 C 260.722656 228.054688 255.402344 233.691406 251.148438 237.585938 C 247.363281 241.019531 240.269531 245.011719 236.226562 239.644531 C 234.148438 236.867188 234.910156 232.929688 236.710938 229.867188 C 237.53125 229.332031 238.300781 228.796875 239.035156 228.273438 C 243.394531 225.070312 247.933594 221.351562 251.308594 216.894531 C 254.898438 216.339844 258.289062 217.734375 259.25 221.808594 Z M 241.191406 194.082031 C 247.363281 193.953125 250.832031 200.46875 249.101562 206.9375 C 247.371094 213.402344 241.359375 218.199219 236.246094 222.0625 C 231.300781 225.78125 220.71875 233.226562 216.226562 225.335938 C 214.65625 222.558594 215.851562 219.582031 217.886719 216.875 C 221.121094 215.261719 224.089844 213.257812 226.789062 210.863281 C 231.753906 206.453125 237.90625 200.699219 241.191406 194.082031 Z M 225.089844 176.382812 C 232.011719 175.019531 238.390625 180.636719 236.15625 188.25 C 234.367188 194.359375 229.429688 198.976562 224.988281 203.257812 C 220.042969 208.023438 212.390625 215.480469 205.089844 210.761719 C 198.238281 206.332031 201.984375 199.085938 206.238281 194.339844 C 207.285156 193.65625 208.316406 192.925781 209.34375 192.175781 C 214.921875 188.140625 221.507812 182.851562 225.089844 176.382812 Z M 191.460938 177.054688 C 195.070312 170.996094 203.4375 164.113281 206.949219 161.40625 C 207.75 160.8125 208.617188 160.355469 209.554688 160.023438 C 210.492188 159.695312 211.460938 159.511719 212.453125 159.472656 C 213.445312 159.4375 214.421875 159.546875 215.382812 159.800781 C 216.34375 160.058594 217.246094 160.453125 218.085938 160.980469 C 222.21875 163.726562 221.054688 169.253906 219.175781 173.050781 C 216.109375 179.230469 209.601562 183.820312 204.132812 187.707031 C 201.105469 189.851562 196.929688 192.769531 192.976562 191.304688 C 186.84375 189.03125 189.15625 180.972656 191.492188 177.054688 Z M 144.246094 229.675781 C 144.871094 228.890625 145.308594 228.007812 145.550781 227.03125 C 145.789062 226.054688 145.816406 225.070312 145.628906 224.082031 C 142.8125 208.804688 145.332031 192.757812 150.703125 182.683594 C 157.171875 170.570312 162.117188 166.089844 160.179688 151.644531 C 159.589844 147.871094 158.5 144.246094 156.914062 140.769531 C 155.558594 137.59375 151.21875 130.714844 156.914062 129.539062 C 163.324219 128.222656 171.433594 136.457031 174.363281 140.9375 C 184.925781 156.90625 183.53125 178.65625 169.464844 194.855469 C 169.199219 195.167969 169.03125 195.53125 168.957031 195.9375 C 168.882812 196.34375 168.917969 196.738281 169.058594 197.128906 C 169.199219 197.515625 169.429688 197.84375 169.746094 198.105469 C 170.0625 198.371094 170.425781 198.539062 170.832031 198.609375 C 175.347656 199.433594 179.589844 200.996094 183.558594 203.296875 C 199.285156 212.253906 208.285156 228.285156 210.410156 246.800781 C 210.457031 247.015625 210.558594 247.191406 210.722656 247.335938 C 210.882812 247.480469 211.070312 247.5625 211.285156 247.582031 C 211.5 247.601562 211.703125 247.558594 211.886719 247.445312 C 212.074219 247.335938 212.207031 247.179688 212.289062 246.980469 C 213.898438 242.324219 214.296875 237.5625 213.488281 232.703125 C 217.632812 236.164062 223.089844 235.875 228.324219 234.046875 C 228.042969 235.699219 228.082031 237.34375 228.433594 238.980469 C 228.785156 240.617188 229.425781 242.128906 230.359375 243.519531 C 231.726562 245.421875 233.488281 246.816406 235.652344 247.710938 C 226.394531 260.160156 213.894531 271.75 188.03125 271.332031 C 186.699219 271.3125 185.382812 271.4375 184.082031 271.707031 C 182.777344 271.976562 181.519531 272.382812 180.308594 272.929688 C 179.09375 273.472656 177.953125 274.144531 176.886719 274.9375 C 175.820312 275.734375 174.855469 276.632812 173.984375 277.640625 L 163.828125 289.378906 L 95.160156 289.378906 C 107.660156 274.289062 136.355469 239.535156 144.277344 229.675781 Z M 144.246094 229.675781 " fill-opacity="1" fill-rule="nonzero"/></g></svg>